<mxfile host="app.diagrams.net" agent="Mozilla/5.0 (Windows NT 10.0; Win64; x64) AppleWebKit/537.36 (KHTML, like Gecko) Chrome/131.0.0.0 Safari/537.36" version="26.0.4">
  <diagram name="第 1 页" id="ieLeyJT_CJK5jCsGheTR">
    <mxGraphModel dx="814" dy="517" grid="1" gridSize="10" guides="1" tooltips="1" connect="1" arrows="1" fold="1" page="1" pageScale="1" pageWidth="827" pageHeight="1169" math="0" shadow="0">
      <root>
        <mxCell id="0" />
        <mxCell id="1" parent="0" />
        <mxCell id="GPMzGDfLv2LmJb7AhvG5-1" value="" style="verticalLabelPosition=bottom;aspect=fixed;html=1;shape=mxgraph.salesforce.iot2;" vertex="1" parent="1">
          <mxGeometry x="410" y="270" width="60" height="60" as="geometry" />
        </mxCell>
        <mxCell id="GPMzGDfLv2LmJb7AhvG5-2" value="" style="verticalLabelPosition=bottom;aspect=fixed;html=1;shape=mxgraph.salesforce.iot2;" vertex="1" parent="1">
          <mxGeometry x="110" y="270" width="60" height="60" as="geometry" />
        </mxCell>
        <mxCell id="GPMzGDfLv2LmJb7AhvG5-3" value="" style="verticalLabelPosition=bottom;aspect=fixed;html=1;shape=mxgraph.salesforce.iot2;" vertex="1" parent="1">
          <mxGeometry x="310" y="270" width="60" height="60" as="geometry" />
        </mxCell>
        <mxCell id="GPMzGDfLv2LmJb7AhvG5-4" value="" style="verticalLabelPosition=bottom;aspect=fixed;html=1;shape=mxgraph.salesforce.iot2;" vertex="1" parent="1">
          <mxGeometry x="210" y="270" width="60" height="60" as="geometry" />
        </mxCell>
        <mxCell id="GPMzGDfLv2LmJb7AhvG5-5" value="" style="verticalLabelPosition=bottom;aspect=fixed;html=1;shape=mxgraph.salesforce.communications2;" vertex="1" parent="1">
          <mxGeometry x="260" y="90" width="60" height="60" as="geometry" />
        </mxCell>
        <mxCell id="GPMzGDfLv2LmJb7AhvG5-12" value="" style="shape=flexArrow;endArrow=classic;startArrow=classic;html=1;rounded=0;startWidth=2.7419354838709675;startSize=1.912;endWidth=2.7419354838709675;endSize=1.912;fillColor=#dae8fc;strokeColor=#6c8ebf;width=3.04;" edge="1" parent="1">
          <mxGeometry width="100" height="100" relative="1" as="geometry">
            <mxPoint x="20" y="360" as="sourcePoint" />
            <mxPoint x="50" y="360" as="targetPoint" />
          </mxGeometry>
        </mxCell>
        <mxCell id="GPMzGDfLv2LmJb7AhvG5-13" value="" style="shape=flexArrow;endArrow=classic;startArrow=classic;html=1;rounded=0;startWidth=2.7419354838709675;startSize=1.912;endWidth=2.7419354838709675;endSize=1.912;fillColor=#d5e8d4;strokeColor=#82b366;width=3.04;" edge="1" parent="1">
          <mxGeometry width="100" height="100" relative="1" as="geometry">
            <mxPoint x="20" y="370" as="sourcePoint" />
            <mxPoint x="50" y="370" as="targetPoint" />
          </mxGeometry>
        </mxCell>
        <mxCell id="GPMzGDfLv2LmJb7AhvG5-14" value="" style="shape=flexArrow;endArrow=classic;startArrow=classic;html=1;rounded=0;startWidth=2.7419354838709675;startSize=1.912;endWidth=2.7419354838709675;endSize=1.912;fillColor=#ffe6cc;strokeColor=#d79b00;width=3.04;" edge="1" parent="1">
          <mxGeometry width="100" height="100" relative="1" as="geometry">
            <mxPoint x="20" y="380" as="sourcePoint" />
            <mxPoint x="50" y="380" as="targetPoint" />
          </mxGeometry>
        </mxCell>
        <mxCell id="GPMzGDfLv2LmJb7AhvG5-15" value="" style="shape=flexArrow;endArrow=classic;startArrow=classic;html=1;rounded=0;startWidth=2.7419354838709675;startSize=1.912;endWidth=2.7419354838709675;endSize=1.912;fillColor=#fff2cc;strokeColor=#d6b656;width=3.04;" edge="1" parent="1">
          <mxGeometry width="100" height="100" relative="1" as="geometry">
            <mxPoint x="20" y="390" as="sourcePoint" />
            <mxPoint x="50" y="390" as="targetPoint" />
          </mxGeometry>
        </mxCell>
        <mxCell id="GPMzGDfLv2LmJb7AhvG5-16" value="&lt;span style=&quot;font-size: 10px;&quot;&gt;freq1&lt;/span&gt;" style="text;html=1;align=center;verticalAlign=middle;whiteSpace=wrap;rounded=0;" vertex="1" parent="1">
          <mxGeometry x="60" y="350" width="20" height="10" as="geometry" />
        </mxCell>
        <mxCell id="GPMzGDfLv2LmJb7AhvG5-17" value="&lt;span style=&quot;font-size: 10px;&quot;&gt;freq2&lt;/span&gt;" style="text;html=1;align=center;verticalAlign=middle;whiteSpace=wrap;rounded=0;" vertex="1" parent="1">
          <mxGeometry x="60" y="360" width="20" height="10" as="geometry" />
        </mxCell>
        <mxCell id="GPMzGDfLv2LmJb7AhvG5-18" value="&lt;span style=&quot;font-size: 10px;&quot;&gt;freq3&lt;/span&gt;" style="text;html=1;align=center;verticalAlign=middle;whiteSpace=wrap;rounded=0;" vertex="1" parent="1">
          <mxGeometry x="60" y="370" width="20" height="10" as="geometry" />
        </mxCell>
        <mxCell id="GPMzGDfLv2LmJb7AhvG5-19" value="&lt;span style=&quot;font-size: 10px;&quot;&gt;freq4&lt;/span&gt;" style="text;html=1;align=center;verticalAlign=middle;whiteSpace=wrap;rounded=0;" vertex="1" parent="1">
          <mxGeometry x="60" y="380" width="20" height="10" as="geometry" />
        </mxCell>
        <mxCell id="GPMzGDfLv2LmJb7AhvG5-23" value="" style="shape=flexArrow;endArrow=classic;startArrow=classic;html=1;rounded=0;startWidth=10.285714285714286;startSize=5.714285714285714;endWidth=10.285714285714286;endSize=5.714285714285714;fillColor=#dae8fc;strokeColor=#6c8ebf;" edge="1" parent="1">
          <mxGeometry width="100" height="100" relative="1" as="geometry">
            <mxPoint x="140" y="260" as="sourcePoint" />
            <mxPoint x="250" y="140" as="targetPoint" />
          </mxGeometry>
        </mxCell>
        <mxCell id="GPMzGDfLv2LmJb7AhvG5-24" value="" style="shape=flexArrow;endArrow=classic;startArrow=classic;html=1;rounded=0;startWidth=10.285714285714286;startSize=5.714285714285714;endWidth=10.285714285714286;endSize=5.714285714285714;fillColor=#d5e8d4;strokeColor=#82b366;" edge="1" parent="1">
          <mxGeometry width="100" height="100" relative="1" as="geometry">
            <mxPoint x="240" y="260" as="sourcePoint" />
            <mxPoint x="270" y="160" as="targetPoint" />
          </mxGeometry>
        </mxCell>
        <mxCell id="GPMzGDfLv2LmJb7AhvG5-25" value="" style="shape=flexArrow;endArrow=classic;startArrow=classic;html=1;rounded=0;startWidth=10.285714285714286;startSize=5.714285714285714;endWidth=10.285714285714286;endSize=5.714285714285714;fillColor=#ffe6cc;strokeColor=#d79b00;" edge="1" parent="1">
          <mxGeometry width="100" height="100" relative="1" as="geometry">
            <mxPoint x="340" y="260" as="sourcePoint" />
            <mxPoint x="310" y="160" as="targetPoint" />
          </mxGeometry>
        </mxCell>
        <mxCell id="GPMzGDfLv2LmJb7AhvG5-26" value="" style="shape=flexArrow;endArrow=classic;startArrow=classic;html=1;rounded=0;startWidth=10.285714285714286;startSize=5.714285714285714;endWidth=10.285714285714286;endSize=5.714285714285714;fillColor=#fff2cc;strokeColor=#d6b656;" edge="1" parent="1">
          <mxGeometry width="100" height="100" relative="1" as="geometry">
            <mxPoint x="330" y="140" as="sourcePoint" />
            <mxPoint x="440" y="260" as="targetPoint" />
          </mxGeometry>
        </mxCell>
        <mxCell id="GPMzGDfLv2LmJb7AhvG5-27" value="2" style="html=1;dashed=0;whiteSpace=wrap;shape=mxgraph.dfd.start;fillColor=#6a00ff;strokeColor=#3700CC;fontColor=#ffffff;" vertex="1" parent="1">
          <mxGeometry x="110" y="367.73" width="20" height="9.06" as="geometry" />
        </mxCell>
        <mxCell id="GPMzGDfLv2LmJb7AhvG5-28" value="1" style="html=1;dashed=0;whiteSpace=wrap;shape=mxgraph.dfd.start;fillColor=#0050ef;strokeColor=#001DBC;fontColor=#ffffff;" vertex="1" parent="1">
          <mxGeometry x="110" y="353.20000000000005" width="20" height="9.06" as="geometry" />
        </mxCell>
        <mxCell id="GPMzGDfLv2LmJb7AhvG5-29" value="3" style="html=1;dashed=0;whiteSpace=wrap;shape=mxgraph.dfd.start;fillColor=#d80073;strokeColor=#A50040;fontColor=#ffffff;" vertex="1" parent="1">
          <mxGeometry x="110" y="380.94" width="20" height="9.06" as="geometry" />
        </mxCell>
        <mxCell id="GPMzGDfLv2LmJb7AhvG5-30" value="&lt;span style=&quot;font-size: 10px;&quot;&gt;1. Test Msg&lt;/span&gt;" style="text;html=1;align=left;verticalAlign=middle;whiteSpace=wrap;rounded=0;" vertex="1" parent="1">
          <mxGeometry x="140" y="352.26" width="70" height="10" as="geometry" />
        </mxCell>
        <mxCell id="GPMzGDfLv2LmJb7AhvG5-31" value="&lt;span style=&quot;font-size: 10px;&quot;&gt;2. ACK Msg&lt;/span&gt;" style="text;html=1;align=left;verticalAlign=middle;whiteSpace=wrap;rounded=0;" vertex="1" parent="1">
          <mxGeometry x="140" y="366.79" width="60" height="10" as="geometry" />
        </mxCell>
        <mxCell id="GPMzGDfLv2LmJb7AhvG5-32" value="&lt;span style=&quot;font-size: 10px;&quot;&gt;3. Broadcasting Msg&lt;/span&gt;" style="text;html=1;align=left;verticalAlign=middle;whiteSpace=wrap;rounded=0;" vertex="1" parent="1">
          <mxGeometry x="140" y="380" width="100" height="10" as="geometry" />
        </mxCell>
        <mxCell id="GPMzGDfLv2LmJb7AhvG5-33" value="&lt;font style=&quot;font-size: 18px;&quot;&gt;FDMA&lt;/font&gt;" style="text;html=1;align=center;verticalAlign=middle;whiteSpace=wrap;rounded=0;" vertex="1" parent="1">
          <mxGeometry x="80" y="180" width="60" height="30" as="geometry" />
        </mxCell>
        <mxCell id="GPMzGDfLv2LmJb7AhvG5-55" value="&lt;span style=&quot;font-size: 18px;&quot;&gt;Network&lt;/span&gt;&lt;div&gt;&lt;span style=&quot;font-size: 18px;&quot;&gt;Gate&lt;/span&gt;&lt;/div&gt;" style="text;html=1;align=center;verticalAlign=middle;whiteSpace=wrap;rounded=0;" vertex="1" parent="1">
          <mxGeometry x="530" y="330" width="60" height="30" as="geometry" />
        </mxCell>
        <mxCell id="GPMzGDfLv2LmJb7AhvG5-56" value="&lt;span style=&quot;font-size: 18px;&quot;&gt;Node&lt;/span&gt;" style="text;html=1;align=center;verticalAlign=middle;whiteSpace=wrap;rounded=0;" vertex="1" parent="1">
          <mxGeometry x="670" y="322.26" width="60" height="30" as="geometry" />
        </mxCell>
        <mxCell id="GPMzGDfLv2LmJb7AhvG5-57" value="" style="endArrow=classic;html=1;rounded=0;" edge="1" parent="1">
          <mxGeometry width="50" height="50" relative="1" as="geometry">
            <mxPoint x="560" y="87.74" as="sourcePoint" />
            <mxPoint x="700" y="120" as="targetPoint" />
          </mxGeometry>
        </mxCell>
        <mxCell id="GPMzGDfLv2LmJb7AhvG5-58" value="" style="endArrow=classic;html=1;rounded=0;" edge="1" parent="1">
          <mxGeometry width="50" height="50" relative="1" as="geometry">
            <mxPoint x="700" y="140" as="sourcePoint" />
            <mxPoint x="560" y="197.74" as="targetPoint" />
          </mxGeometry>
        </mxCell>
        <mxCell id="GPMzGDfLv2LmJb7AhvG5-59" value="" style="endArrow=none;html=1;rounded=0;" edge="1" parent="1">
          <mxGeometry width="50" height="50" relative="1" as="geometry">
            <mxPoint x="560" y="317.74" as="sourcePoint" />
            <mxPoint x="560" y="77.74" as="targetPoint" />
          </mxGeometry>
        </mxCell>
        <mxCell id="GPMzGDfLv2LmJb7AhvG5-60" value="" style="endArrow=none;html=1;rounded=0;" edge="1" parent="1">
          <mxGeometry width="50" height="50" relative="1" as="geometry">
            <mxPoint x="700" y="320.94" as="sourcePoint" />
            <mxPoint x="700" y="80.94" as="targetPoint" />
            <Array as="points">
              <mxPoint x="700" y="203.2" />
            </Array>
          </mxGeometry>
        </mxCell>
        <mxCell id="GPMzGDfLv2LmJb7AhvG5-61" value="1" style="html=1;dashed=0;whiteSpace=wrap;shape=mxgraph.dfd.start;fillColor=#0050ef;strokeColor=#001DBC;fontColor=#ffffff;" vertex="1" parent="1">
          <mxGeometry x="620" y="97.74000000000005" width="20" height="9.06" as="geometry" />
        </mxCell>
        <mxCell id="GPMzGDfLv2LmJb7AhvG5-63" value="2" style="html=1;dashed=0;whiteSpace=wrap;shape=mxgraph.dfd.start;fillColor=#6a00ff;strokeColor=#3700CC;fontColor=#ffffff;" vertex="1" parent="1">
          <mxGeometry x="620" y="166.80000000000004" width="20" height="9.06" as="geometry" />
        </mxCell>
        <mxCell id="GPMzGDfLv2LmJb7AhvG5-64" value="" style="endArrow=classic;html=1;rounded=0;" edge="1" parent="1">
          <mxGeometry width="50" height="50" relative="1" as="geometry">
            <mxPoint x="560" y="217.74" as="sourcePoint" />
            <mxPoint x="700" y="260" as="targetPoint" />
          </mxGeometry>
        </mxCell>
        <mxCell id="GPMzGDfLv2LmJb7AhvG5-65" value="3" style="html=1;dashed=0;whiteSpace=wrap;shape=mxgraph.dfd.start;fillColor=#d80073;strokeColor=#A50040;fontColor=#ffffff;" vertex="1" parent="1">
          <mxGeometry x="620" y="230.94" width="20" height="9.06" as="geometry" />
        </mxCell>
        <mxCell id="GPMzGDfLv2LmJb7AhvG5-66" value="&lt;span&gt;Calculate&amp;nbsp;&lt;/span&gt;&lt;div&gt;&lt;span&gt;Gate2Node&amp;nbsp;&lt;/span&gt;&lt;span style=&quot;background-color: transparent; color: light-dark(rgb(0, 0, 0), rgb(255, 255, 255));&quot;&gt;SNR&lt;/span&gt;&lt;/div&gt;" style="text;html=1;align=center;verticalAlign=middle;whiteSpace=wrap;rounded=0;fontSize=12;" vertex="1" parent="1">
          <mxGeometry x="710" y="97.74" width="90" height="30" as="geometry" />
        </mxCell>
        <mxCell id="GPMzGDfLv2LmJb7AhvG5-67" value="&lt;span&gt;ACK: Gate2Node&lt;/span&gt;&lt;div&gt;&lt;span&gt;SNR&amp;amp;Electricity&lt;/span&gt;&lt;/div&gt;" style="text;html=1;align=center;verticalAlign=middle;whiteSpace=wrap;rounded=0;fontSize=12;" vertex="1" parent="1">
          <mxGeometry x="710" y="127.74000000000001" width="100" height="30" as="geometry" />
        </mxCell>
        <mxCell id="GPMzGDfLv2LmJb7AhvG5-68" value="&lt;span&gt;Broadcasting Gate2Node&lt;/span&gt;&lt;div&gt;&lt;span&gt;SNR&amp;amp;Electricity&lt;/span&gt;&lt;/div&gt;&lt;div&gt;of all nodes to all nodes&lt;/div&gt;" style="text;html=1;align=center;verticalAlign=middle;whiteSpace=wrap;rounded=0;fontSize=12;" vertex="1" parent="1">
          <mxGeometry x="460" y="196.8" width="90" height="30" as="geometry" />
        </mxCell>
        <mxCell id="GPMzGDfLv2LmJb7AhvG5-69" value="&lt;span&gt;Update&lt;/span&gt;&lt;div&gt;&lt;span&gt;Gate2Node&lt;/span&gt;&lt;div&gt;&lt;span&gt;SNR&amp;amp;Electricity&lt;/span&gt;&lt;/div&gt;&lt;div&gt;of all nodes&lt;/div&gt;&lt;/div&gt;" style="text;html=1;align=center;verticalAlign=middle;whiteSpace=wrap;rounded=0;fontSize=12;" vertex="1" parent="1">
          <mxGeometry x="710" y="240" width="90" height="30" as="geometry" />
        </mxCell>
        <mxCell id="GPMzGDfLv2LmJb7AhvG5-72" value="Broadcasting&lt;div&gt;Test&lt;/div&gt;" style="text;html=1;align=center;verticalAlign=middle;whiteSpace=wrap;rounded=0;fontSize=12;" vertex="1" parent="1">
          <mxGeometry x="460" y="76.80000000000001" width="90" height="30" as="geometry" />
        </mxCell>
      </root>
    </mxGraphModel>
  </diagram>
</mxfile>
